name baseline.mot
datacolumns 19
datarows 56
range 12.508299 12.599978
endheader
time	ground_force1_vx	ground_force1_vy	ground_force1_vz	ground_force1_px	ground_force1_py	ground_force1_pz	ground_force2_vx	ground_force2_vy	ground_force2_vz	ground_force2_px	ground_force2_py	ground_force2_pz	ground_torque1_x	ground_torque1_y	ground_torque1_z	ground_torque2_x	ground_torque2_y	ground_torque2_z	
12.508299	79.361746	778.931113	81.500581	0.207527	0.000000	0.167514	0.000000	0.000000	0.000000	0.000000	0.000000	0.000000	0.000000	7.077344	0.000000	0.000000	0.000000	0.000000	
12.509953	78.628586	781.095469	81.335049	0.206717	0.000000	0.167417	0.000000	0.000000	0.000000	0.000000	0.000000	0.000000	0.000000	7.071993	0.000000	0.000000	0.000000	0.000000	
12.511622	77.897679	783.128180	81.174324	0.205912	0.000000	0.167323	0.000000	0.000000	0.000000	0.000000	0.000000	0.000000	0.000000	7.069051	0.000000	0.000000	0.000000	0.000000	
12.513283	77.169291	785.028041	81.018813	0.205111	0.000000	0.167232	0.000000	0.000000	0.000000	0.000000	0.000000	0.000000	0.000000	7.068567	0.000000	0.000000	0.000000	0.000000	
12.514963	76.443617	786.794029	80.868812	0.204313	0.000000	0.167144	0.000000	0.000000	0.000000	0.000000	0.000000	0.000000	0.000000	7.070560	0.000000	0.000000	0.000000	0.000000	
12.516619	75.720795	788.425307	80.724508	0.203516	0.000000	0.167059	0.000000	0.000000	0.000000	0.000000	0.000000	0.000000	0.000000	7.075026	0.000000	0.000000	0.000000	0.000000	
12.518284	75.000900	789.921237	80.585987	0.202718	0.000000	0.166977	0.000000	0.000000	0.000000	0.000000	0.000000	0.000000	0.000000	7.081930	0.000000	0.000000	0.000000	0.000000	
12.519956	74.283957	791.281382	80.453235	0.201919	0.000000	0.166898	0.000000	0.000000	0.000000	0.000000	0.000000	0.000000	0.000000	7.091218	0.000000	0.000000	0.000000	0.000000	
12.521618	73.569940	792.505518	80.326144	0.201116	0.000000	0.166823	0.000000	0.000000	0.000000	0.000000	0.000000	0.000000	0.000000	7.102809	0.000000	0.000000	0.000000	0.000000	
12.523296	72.858781	793.593635	80.204519	0.200309	0.000000	0.166750	0.000000	0.000000	0.000000	0.000000	0.000000	0.000000	0.000000	7.116603	0.000000	0.000000	0.000000	0.000000	
12.524954	72.150374	794.545941	80.088080	0.199495	0.000000	0.166682	0.000000	0.000000	0.000000	0.000000	0.000000	0.000000	0.000000	7.132480	0.000000	0.000000	0.000000	0.000000	
12.526615	71.444577	795.362868	79.976470	0.198674	0.000000	0.166616	0.000000	0.000000	0.000000	0.000000	0.000000	0.000000	0.000000	7.150302	0.000000	0.000000	0.000000	0.000000	
12.528287	70.741222	796.045071	79.869265	0.197845	0.000000	0.166554	0.000000	0.000000	0.000000	0.000000	0.000000	0.000000	0.000000	7.169913	0.000000	0.000000	0.000000	0.000000	
12.529955	70.040115	796.593434	79.765972	0.197006	0.000000	0.166496	0.000000	0.000000	0.000000	0.000000	0.000000	0.000000	0.000000	7.191146	0.000000	0.000000	0.000000	0.000000	
12.531621	69.341047	797.009065	79.666043	0.196156	0.000000	0.166440	0.000000	0.000000	0.000000	0.000000	0.000000	0.000000	0.000000	7.213819	0.000000	0.000000	0.000000	0.000000	
12.533299	68.643792	797.293297	79.568879	0.195295	0.000000	0.166388	0.000000	0.000000	0.000000	0.000000	0.000000	0.000000	0.000000	7.237739	0.000000	0.000000	0.000000	0.000000	
12.534972	67.948114	797.447692	79.473837	0.194421	0.000000	0.166340	0.000000	0.000000	0.000000	0.000000	0.000000	0.000000	0.000000	7.262706	0.000000	0.000000	0.000000	0.000000	
12.536616	67.253774	797.474030	79.380237	0.193533	0.000000	0.166295	0.000000	0.000000	0.000000	0.000000	0.000000	0.000000	0.000000	7.288511	0.000000	0.000000	0.000000	0.000000	
12.538281	66.560532	797.374313	79.287367	0.192632	0.000000	0.166253	0.000000	0.000000	0.000000	0.000000	0.000000	0.000000	0.000000	7.314943	0.000000	0.000000	0.000000	0.000000	
12.539966	65.868150	797.150757	79.194495	0.191716	0.000000	0.166214	0.000000	0.000000	0.000000	0.000000	0.000000	0.000000	0.000000	7.341785	0.000000	0.000000	0.000000	0.000000	
12.541617	65.176397	796.805790	79.100870	0.190785	0.000000	0.166178	0.000000	0.000000	0.000000	0.000000	0.000000	0.000000	0.000000	7.368821	0.000000	0.000000	0.000000	0.000000	
12.543285	64.485054	796.342044	79.005732	0.189839	0.000000	0.166146	0.000000	0.000000	0.000000	0.000000	0.000000	0.000000	0.000000	7.395835	0.000000	0.000000	0.000000	0.000000	
12.544954	63.793912	795.762351	78.908320	0.188878	0.000000	0.166116	0.000000	0.000000	0.000000	0.000000	0.000000	0.000000	0.000000	7.422612	0.000000	0.000000	0.000000	0.000000	
12.546623	63.102783	795.069735	78.807873	0.187901	0.000000	0.166089	0.000000	0.000000	0.000000	0.000000	0.000000	0.000000	0.000000	7.448945	0.000000	0.000000	0.000000	0.000000	
12.548282	62.411493	794.267403	78.703642	0.186908	0.000000	0.166065	0.000000	0.000000	0.000000	0.000000	0.000000	0.000000	0.000000	7.474630	0.000000	0.000000	0.000000	0.000000	
12.549954	61.719893	793.358741	78.594892	0.185900	0.000000	0.166044	0.000000	0.000000	0.000000	0.000000	0.000000	0.000000	0.000000	7.499471	0.000000	0.000000	0.000000	0.000000	
12.551622	61.027855	792.347301	78.480909	0.184877	0.000000	0.166025	0.000000	0.000000	0.000000	0.000000	0.000000	0.000000	0.000000	7.523281	0.000000	0.000000	0.000000	0.000000	
12.553301	60.335276	791.236794	78.361007	0.183839	0.000000	0.166009	0.000000	0.000000	0.000000	0.000000	0.000000	0.000000	0.000000	7.545884	0.000000	0.000000	0.000000	0.000000	
12.554952	59.642079	790.031078	78.234530	0.182786	0.000000	0.165995	0.000000	0.000000	0.000000	0.000000	0.000000	0.000000	0.000000	7.567116	0.000000	0.000000	0.000000	0.000000	
12.556620	58.948214	788.734151	78.100861	0.181720	0.000000	0.165983	0.000000	0.000000	0.000000	0.000000	0.000000	0.000000	0.000000	7.586824	0.000000	0.000000	0.000000	0.000000	
12.558287	58.253658	787.350138	77.959421	0.180641	0.000000	0.165974	0.000000	0.000000	0.000000	0.000000	0.000000	0.000000	0.000000	7.604870	0.000000	0.000000	0.000000	0.000000	
12.559948	57.558416	785.883280	77.809678	0.179550	0.000000	0.165966	0.000000	0.000000	0.000000	0.000000	0.000000	0.000000	0.000000	7.621131	0.000000	0.000000	0.000000	0.000000	
12.561622	56.862522	784.337925	77.651147	0.178447	0.000000	0.165961	0.000000	0.000000	0.000000	0.000000	0.000000	0.000000	0.000000	7.635497	0.000000	0.000000	0.000000	0.000000	
12.563300	56.166035	782.718513	77.483397	0.177334	0.000000	0.165957	0.000000	0.000000	0.000000	0.000000	0.000000	0.000000	0.000000	7.647877	0.000000	0.000000	0.000000	0.000000	
12.564958	55.469043	781.029567	77.306050	0.176211	0.000000	0.165954	0.000000	0.000000	0.000000	0.000000	0.000000	0.000000	0.000000	7.658192	0.000000	0.000000	0.000000	0.000000	
12.566617	54.771662	779.275680	77.118786	0.175080	0.000000	0.165953	0.000000	0.000000	0.000000	0.000000	0.000000	0.000000	0.000000	7.666384	0.000000	0.000000	0.000000	0.000000	
12.568288	54.074031	777.461504	76.921343	0.173942	0.000000	0.165954	0.000000	0.000000	0.000000	0.000000	0.000000	0.000000	0.000000	7.672408	0.000000	0.000000	0.000000	0.000000	
12.569973	53.376313	775.591735	76.713523	0.172798	0.000000	0.165955	0.000000	0.000000	0.000000	0.000000	0.000000	0.000000	0.000000	7.676236	0.000000	0.000000	0.000000	0.000000	
12.571622	52.678696	773.671106	76.495185	0.171650	0.000000	0.165958	0.000000	0.000000	0.000000	0.000000	0.000000	0.000000	0.000000	7.677857	0.000000	0.000000	0.000000	0.000000	
12.573307	51.981388	771.704371	76.266255	0.170498	0.000000	0.165962	0.000000	0.000000	0.000000	0.000000	0.000000	0.000000	0.000000	7.677274	0.000000	0.000000	0.000000	0.000000	
12.574951	51.284617	769.696294	76.026720	0.169345	0.000000	0.165966	0.000000	0.000000	0.000000	0.000000	0.000000	0.000000	0.000000	7.674507	0.000000	0.000000	0.000000	0.000000	
12.576614	50.588629	767.651638	75.776630	0.168191	0.000000	0.165971	0.000000	0.000000	0.000000	0.000000	0.000000	0.000000	0.000000	7.669589	0.000000	0.000000	0.000000	0.000000	
12.578289	49.893684	765.575153	75.516097	0.167038	0.000000	0.165977	0.000000	0.000000	0.000000	0.000000	0.000000	0.000000	0.000000	7.662569	0.000000	0.000000	0.000000	0.000000	
12.579960	49.200058	763.471564	75.245293	0.165887	0.000000	0.165983	0.000000	0.000000	0.000000	0.000000	0.000000	0.000000	0.000000	7.653508	0.000000	0.000000	0.000000	0.000000	
12.581614	48.508035	761.345561	74.964452	0.164740	0.000000	0.165990	0.000000	0.000000	0.000000	0.000000	0.000000	0.000000	0.000000	7.642478	0.000000	0.000000	0.000000	0.000000	
12.583289	47.817912	759.201790	74.673863	0.163598	0.000000	0.165997	0.000000	0.000000	0.000000	0.000000	0.000000	0.000000	0.000000	7.629565	0.000000	0.000000	0.000000	0.000000	
12.584968	47.129989	757.044835	74.373873	0.162462	0.000000	0.166004	0.000000	0.000000	0.000000	0.000000	0.000000	0.000000	0.000000	7.614864	0.000000	0.000000	0.000000	0.000000	
12.586623	46.444570	754.879219	74.064881	0.161334	0.000000	0.166012	0.000000	0.000000	0.000000	0.000000	0.000000	0.000000	0.000000	7.598479	0.000000	0.000000	0.000000	0.000000	
12.588283	45.761964	752.709386	73.747335	0.160214	0.000000	0.166019	0.000000	0.000000	0.000000	0.000000	0.000000	0.000000	0.000000	7.580525	0.000000	0.000000	0.000000	0.000000	
12.589961	45.082476	750.539692	73.421733	0.159105	0.000000	0.166026	0.000000	0.000000	0.000000	0.000000	0.000000	0.000000	0.000000	7.561120	0.000000	0.000000	0.000000	0.000000	
12.591617	44.406408	748.374402	73.088615	0.158006	0.000000	0.166034	0.000000	0.000000	0.000000	0.000000	0.000000	0.000000	0.000000	7.540394	0.000000	0.000000	0.000000	0.000000	
12.593295	43.734057	746.217676	72.748560	0.156920	0.000000	0.166041	0.000000	0.000000	0.000000	0.000000	0.000000	0.000000	0.000000	7.518479	0.000000	0.000000	0.000000	0.000000	
12.594957	43.065711	744.073563	72.402186	0.155847	0.000000	0.166048	0.000000	0.000000	0.000000	0.000000	0.000000	0.000000	0.000000	7.495512	0.000000	0.000000	0.000000	0.000000	
12.596618	42.401648	741.945995	72.050141	0.154788	0.000000	0.166054	0.000000	0.000000	0.000000	0.000000	0.000000	0.000000	0.000000	7.471634	0.000000	0.000000	0.000000	0.000000	
12.598287	41.742132	739.838777	71.693102	0.153743	0.000000	0.166061	0.000000	0.000000	0.000000	0.000000	0.000000	0.000000	0.000000	7.446990	0.000000	0.000000	0.000000	0.000000	
12.599978	41.087415	737.755582	71.331771	0.152714	0.000000	0.166067	0.000000	0.000000	0.000000	0.000000	0.000000	0.000000	0.000000	7.421725	0.000000	0.000000	0.000000	0.000000	
